Coordinates
version=1
nRows=5
nColumns=40
inDegrees=yes

Units are S.I. units (second, meters, Newtons, ...)
Angles are in degrees.

endheader
time	pelvis_tilt	pelvis_list	pelvis_rotation	pelvis_tx	pelvis_ty	pelvis_tz	hip_flexion_r	hip_adduction_r	hip_rotation_r	knee_angle_r	knee_angle_r_beta	ankle_angle_r	subtalar_angle_r	mtp_angle_r	hip_flexion_l	hip_adduction_l	hip_rotation_l	knee_angle_l	knee_angle_l_beta	ankle_angle_l	subtalar_angle_l	mtp_angle_l	lumbar_extension	lumbar_bending	lumbar_rotation	arm_flex_r	arm_add_r	arm_rot_r	elbow_flex_r	pro_sup_r	wrist_flex_r	wrist_dev_r	arm_flex_l	arm_add_l	arm_rot_l	elbow_flex_l	pro_sup_l	wrist_flex_l	wrist_dev_l
     42.21500000	     -2.28259665	     -4.96429106	      4.03022348	      1.02893617	      0.93398199	      0.53122168	      7.26280359	      3.91072448	    -15.88907001	     12.64043674	     12.64043674	     10.47867837	      5.12871682	     -7.11466726	     30.42961480	    -12.37515261	     -0.25049361	     39.78244977	     39.78244977	      9.06384068	    -15.15686983	      5.59725505	    -10.19868285	      5.78708144	      2.26100545	     12.48420038	    -21.86978564	     -0.25559595	     52.08133814	     45.13757285	      0.00000000	      0.00000000	      3.73971368	    -10.48627345	     -6.63249481	     39.60901041	     46.35308188	      0.00000000	      0.00000000
     42.22885714	     -2.44522114	     -4.91469612	      4.23797285	      1.02817934	      0.93361411	      0.53154060	      7.01134560	      3.93473702	    -15.93694550	     12.46797053	     12.46797053	     10.67041223	      4.95967733	     -7.14270742	     30.36298332	    -12.08597414	     -0.43874072	     35.71253341	     35.71253341	      9.01613211	    -13.83224516	      6.12559411	    -10.12911993	      5.80665628	      2.49535665	     13.17207661	    -21.85361471	     -0.22638971	     52.57385970	     45.12608964	      0.00000000	      0.00000000	      3.02466947	    -10.32070289	     -6.75106185	     39.29048633	     46.35321693	      0.00000000	      0.00000000
     42.24271429	     -2.61278709	     -4.87384997	      4.44517889	      1.02749781	      0.93313037	      0.53169044	      6.78376010	      3.94393304	    -16.01199275	     12.34534155	     12.34534155	     10.87896714	      4.85984147	     -7.21368089	     30.23881817	    -11.78354654	     -0.62039850	     31.74209321	     31.74209321	      8.88474617	    -12.16979662	      6.59965414	    -10.01772161	      5.84685562	      2.62258156	     13.90027674	    -21.78383962	     -0.21210604	     53.10065824	     45.11366437	      0.00000000	      0.00000000	      2.29781569	    -10.14637493	     -6.85316602	     38.91931323	     46.35147045	      0.00000000	      0.00000000
     42.25657143	     -2.80777015	     -4.96741036	      4.68235549	      1.02679345	      0.93247327	      0.53170205	      6.65107904	      4.07092298	    -16.15706531	     12.32538473	     12.32538473	     11.08072223	      4.72858679	     -7.30811575	     30.21451340	    -11.56623434	     -0.65218506	     28.09169903	     28.09169903	      8.67940482	    -10.36581987	      7.09105749	     -9.85877266	      6.03182517	      2.73078386	     14.63501856	    -21.75105328	     -0.23817336	     53.61904263	     45.10224999	      0.00000000	      0.00000000	      1.61207171	     -9.92564605	     -6.90796328	     38.55479678	     46.34568517	      0.00000000	      0.00000000
     42.27042857	     -2.97858354	     -5.11156444	      4.90781238	      1.02619141	      0.93176781	      0.53159612	      6.52750614	      4.23680775	    -16.28991997	     12.36997759	     12.36997759	     11.30904659	      4.58108928	     -7.41528086	     30.20936222	    -11.37674806	     -0.55961191	     24.87260709	     24.87260709	      8.52183247	     -8.55474091	      7.52921797	     -9.71057429	      6.27868562	      2.83000793	     15.38841517	    -21.68403824	     -0.28382269	     54.16726151	     45.09007931	      0.00000000	      0.00000000	      0.96358873	     -9.75613633	     -6.94670581	     38.17762939	     46.33901405	      0.00000000	      0.00000000
